<svg width="101" height="174" viewBox="0 0 101 174" fill="currentColor" xmlns="http://www.w3.org/2000/svg">
<path d="M68.661 168.365C42.1773 179.957 25.5494 166.564 39.6819 152.058C46.923 144.628 65.5993 134.47 69.2379 134.602C76.1612 134.839 69.4344 143.763 59.9353 148.33C48.8029 153.676 36.0576 153.499 30.3104 149.529C30.3104 149.529 6.10514 134.722 54.4025 100.061C102.703 65.3963 99.7426 84.2338 99.7426 84.2338C99.7426 84.2338 98.2103 99.2175 59.7887 116.904C21.3667 134.585 -1.145 116.78 18.4046 94.6106C37.9552 72.4425 74.8972 51.6481 81.2987 56.176C87.687 60.7114 67.5915 80.3285 43.8846 91.8376C20.168 103.345 -8.92167 99.7545 4.90039 74.9449C18.7322 50.1337 47.0968 39.6389 50.568 43.1827C54.0302 46.7347 44.1639 65.452 19.3553 70.1041C-6.24801 73.5434 1.08068 53.3469 16.3202 42.9928C22.6286 38.7119 23.6419 34.6208 23.4789 29.9854C22.7274 9.18637 18.0722 0.801156 14.3252 1.13053C10.5819 1.48378 5.53861 8.53757 17.2412 22.7901C25.6878 32.0386 30.5064 27.228 32.244 20.1644" stroke="#0E7A31" stroke-miterlimit="10"/>
</svg>
